<?xml version="1.0" encoding="iso-8859-1"?>
<!-- Uploaded to: SVG Repo, www.svgrepo.com, Generator: SVG Repo Mixer Tools -->
<!DOCTYPE svg PUBLIC "-//W3C//DTD SVG 1.1//EN" "http://www.w3.org/Graphics/SVG/1.1/DTD/svg11.dtd">
<svg fill="#000000" version="1.1" id="Capa_1" xmlns="http://www.w3.org/2000/svg" xmlns:xlink="http://www.w3.org/1999/xlink" 
	 width="800px" height="800px" viewBox="0 0 428.148 428.148"
	 xml:space="preserve">
<g>
	<g>
		<path d="M350.126,228.204C350.126,227.592,350.126,227.592,350.126,228.204c0-6.119-1.224-12.239-2.447-17.747
			c-3.673-19.584-11.017-37.944-20.196-53.856c8.568-9.18,12.852-20.808,12.852-33.048c0-3.06-2.447-4.284-4.896-3.672
			c-9.792,1.836-19.584,6.12-26.928,12.852c-15.912-15.3-35.496-24.48-59.364-25.092l0,0c6.731-9.792,10.404-21.42,9.18-34.884
			c0-1.224-1.224-2.448-2.448-3.06c-2.447-10.404-9.18-18.36-19.584-22.644c-8.567-3.672-25.703-6.12-32.436,2.448
			c-8.568-14.688-18.972-29.988-29.988-41.616l0,0c-4.896-14.076-26.927-5.508-36.107-3.06c-19.584,6.12-39.168,15.3-53.856,29.376
			c-0.612,0-1.224,0-1.836,0c-2.448,0-3.06,2.448-2.448,4.284c-2.448,1.224-3.672,3.672-1.836,6.12
			c14.076,18.972,28.764,36.72,44.064,54.468c-11.016,4.896-19.584,20.808-18.972,31.824c0.612,8.568,5.508,17.136,12.852,19.584
			c0.612,1.224,1.836,1.836,3.672,1.836c6.12,0.612,12.852,0.612,20.196,0c-7.956,29.376,0,66.708,19.584,92.412
			c-6.12-0.612-12.852,1.836-17.136,5.508c-4.896,5.508-6.732,12.853-4.284,18.972c-3.672-0.611-7.344,0-11.016,0.612
			c-11.016,3.061-17.748,14.076-14.688,23.868c-6.732,0-12.852,4.284-14.076,11.016c-1.836,0.612-3.06,1.836-3.06,4.284
			c-3.672,67.933,67.32,81.396,134.027,69.156c-1.224,15.3-2.448,29.988-5.508,45.288c-1.225,4.896,6.12,6.731,7.344,1.836
			c4.284-15.3,4.896-32.436,1.224-47.736c14.076-3.06,28.152-6.731,41.005-11.628c-2.448,7.956-2.448,15.3-2.448,22.645
			c0,9.18-1.224,18.972-0.612,28.764c0.612,4.284,7.956,6.732,8.568,1.224c3.06-16.523,1.836-36.72-1.836-53.855
			c20.808-8.568,38.556-19.584,48.348-32.437C346.455,306.54,354.411,266.76,350.126,228.204z M311.571,227.592
			c-3.06-5.508-4.896-11.017-4.284-17.136c3.672,1.836,7.344,3.672,11.017,4.896c0,0,0,0,0,0.612
			C318.915,221.472,316.467,225.756,311.571,227.592z M334.214,206.172c1.225,4.284,2.448,8.568,3.061,12.852
			c-3.061-1.836-6.732-3.06-9.792-4.896l0,0C329.319,210.457,331.767,208.008,334.214,206.172z M331.155,128.449
			c-1.836,7.344-4.896,13.464-9.792,18.972c-3.06-3.672-6.12-7.344-9.18-11.016C317.691,132.732,324.422,129.672,331.155,128.449z
			 M116.343,23.185c4.896-2.448,35.496-18.972,42.228-14.688c10.404,6.12-6.12,16.524-9.792,18.36
			c-7.344,4.284-16.524,5.508-25.092,6.12c-8.568,0.612-16.524,0.612-25.092,1.224C104.715,29.917,110.223,26.245,116.343,23.185z
			 M86.355,42.769c0.612-0.612,1.836-1.224,2.448-1.836c20.196,1.836,42.84,4.284,61.2-3.06c6.732-2.448,16.523-9.792,21.42-17.748
			c3.672,6.12,7.956,12.24,11.628,18.36c3.672,6.12,7.956,12.852,11.628,18.972c-8.568,8.568-15.912,17.136-26.928,23.256
			c-12.24,6.732-24.48,9.18-37.944,11.628c-1.836,0.612-1.836,3.06,0,3.672c25.092,5.508,56.916-9.18,70.38-31.824
			c1.224,1.836,3.06,4.284,4.284,6.12l0.612,0.612c-6.732,9.792-11.017,19.584-22.032,26.928
			c-13.464,9.18-28.152,11.016-44.064,10.404c-0.612,0-1.224,0-1.836,0.612C120.627,86.221,104.104,64.188,86.355,42.769z
			 M120.627,143.749c-6.732-4.284-9.18-12.852-6.12-20.196c2.448-6.732,8.568-11.016,12.24-16.524
			c1.836,1.836,3.672,4.284,5.508,6.12c0.612,1.224,1.836,1.224,3.06,0.612c0.612,0.612,1.224,1.836,1.836,1.836
			c17.136,5.508,37.332,0,52.02-10.404c11.628-7.956,26.928-23.868,24.479-39.168c0-1.224-1.836-1.836-3.06-1.836
			c-1.225-1.836-1.836-4.284-3.061-6.12c6.732,0,13.464-2.448,20.808,0c9.181,3.06,16.524,9.792,20.809,18.36l0,0
			c-10.404,23.256-23.256,38.556-47.736,49.572C175.708,137.628,148.779,141.301,120.627,143.749z M323.811,313.272
			c-37.332,58.14-212.364,95.472-221.544-3.672c0-1.224-0.612-1.836-1.224-2.448c6.12-15.912,35.496,9.181,42.228,14.076
			c2.448,1.836,5.508-1.836,3.672-3.672c-6.732-9.792-17.748-18.972-29.376-22.032c-1.836-11.016,10.404-18.359,21.42-15.912
			c11.628,2.448,18.36,12.853,27.54,19.584c2.448,1.836,6.12-0.611,4.284-3.672c-5.508-9.792-14.688-18.972-25.092-23.256
			c-1.836-4.896-1.224-11.016,2.448-14.076c4.896-4.896,12.24-2.448,17.748-1.224c0.611,0,1.836,0,2.447-0.612
			c5.508,5.508,12.24,9.792,18.973,12.853c2.447,1.224,4.896-1.836,3.06-3.673c-33.048-34.271-48.348-66.095-42.228-113.831
			c34.271-3.672,77.111-16.524,97.919-41.616c0,1.224,0.612,1.836,1.836,2.448c39.78,8.568,69.769,42.84,83.845,83.844
			c-4.284,2.448-7.956,6.12-10.404,10.404c-4.896-3.06-9.792-6.12-14.688-8.568c-3.672-1.836-7.955,0.612-7.955,4.284
			c0,11.016,2.447,21.42,9.18,30.6c0.612,1.224,2.448,1.836,3.672,1.836c7.344-1.836,12.24-6.731,14.688-13.464
			c4.283,2.448,9.18,4.896,13.464,7.344C343.395,259.417,339.111,289.404,323.811,313.272z"/>
		<path d="M250.371,152.316c-6.12,3.06-9.792,9.18-8.567,15.912c1.224,6.12,6.119,12.24,12.852,12.24c3.672,0,6.12-4.896,3.06-7.344
			c-4.283-3.672-6.731-10.404-0.611-13.464c7.956-4.284,12.852,4.896,15.912,11.016c1.224,3.06,6.12,1.224,6.12-1.836
			C277.911,155.376,261.999,146.196,250.371,152.316z"/>
		<path d="M276.687,276.552c-3.061,0-4.284,4.896-0.612,6.12c8.568,1.836,15.3,13.464,8.568,20.808
			c-6.12,6.732-18.973,3.06-21.42-5.508c-0.612-1.836-1.836-2.448-3.061-1.836c-1.224,0-2.448,0.612-2.448,1.836
			c-1.224,7.956,1.837,15.912-6.119,20.808c-6.732,4.284-12.853-1.224-10.404-8.567c0.612-1.836-0.612-3.673-2.448-3.673
			c-1.224-1.224-3.672-0.611-4.896,0.612c-3.061,5.508-7.345,9.181-14.076,7.344c-7.956-2.447-10.404-11.016-11.016-18.359
			c-0.612-13.464,4.283-25.092,9.791-36.72c1.225-3.061-2.447-6.732-4.896-3.673c-13.464,14.688-22.644,44.677-7.956,61.812
			c6.12,6.731,20.196,8.567,27.54,3.672c0,0,0,0.612,0.612,0.612c3.06,5.508,8.567,7.956,14.688,7.344
			c6.732-0.612,12.24-5.508,14.688-11.628c0.611-1.836,1.836-4.896,1.836-7.344c7.956,5.508,19.584,6.119,26.315-1.225
			C301.167,297.36,291.987,276.552,276.687,276.552z"/>
	</g>
</g>
</svg>